<?xml version="1.0" encoding="UTF-8"?>
<svg width="512" height="512" viewBox="0 0 512 512" fill="none" xmlns="http://www.w3.org/2000/svg">
  <defs>
    <linearGradient id="keautyGradient" x1="66" y1="58" x2="446" y2="454" gradientUnits="userSpaceOnUse">
      <stop stop-color="#702344"/>
      <stop offset="0.52" stop-color="#B34874"/>
      <stop offset="1" stop-color="#D986A9"/>
    </linearGradient>
    <filter id="softShadow" x="0" y="0" width="512" height="512" filterUnits="userSpaceOnUse">
      <feDropShadow dx="0" dy="20" stdDeviation="22" flood-color="#702344" flood-opacity="0.25"/>
    </filter>
  </defs>

  <rect x="24" y="24" width="464" height="464" rx="124" fill="url(#keautyGradient)" filter="url(#softShadow)"/>
  <circle cx="152" cy="157" r="34" fill="#FFFFFF" fill-opacity="0.22"/>
  <circle cx="353" cy="122" r="21" fill="#FFFFFF" fill-opacity="0.3"/>
  <circle cx="384" cy="284" r="46" fill="#FFFFFF" fill-opacity="0.1"/>

  <path d="M174 337V157H218V231L292 157H350L273 233L356 337H301L242 263L218 287V337H174Z" fill="#FFFFFF"/>
  <path d="M345 192C345 168 328 154 306 154C291 154 276 164 271 179C266 164 251 154 236 154C214 154 197 168 197 192C197 226 271 288 271 288C271 288 345 226 345 192Z" fill="#F6B9D1" fill-opacity="0.92"/>

  <text x="256" y="402" font-family="Arial Rounded MT Bold, Arial, sans-serif" font-size="62" font-weight="700" fill="#FFFFFF" text-anchor="middle" letter-spacing="-2">keauty</text>
</svg>
